G04*
G04 #@! TF.GenerationSoftware,Altium Limited,Altium Designer,20.0.13 (296)*
G04*
G04 Layer_Physical_Order=1*
G04 Layer_Color=255*
%FSLAX44Y44*%
%MOMM*%
G71*
G01*
G75*
%ADD10R,0.9000X0.8000*%
%ADD11R,0.8000X0.9000*%
%ADD12O,1.6500X0.6000*%
%ADD13R,1.2500X0.3000*%
%ADD14R,3.0000X2.0000*%
%ADD15R,0.9000X0.6000*%
%ADD16O,0.3800X0.9500*%
%ADD17R,0.3800X0.9500*%
%ADD18R,0.7000X0.6000*%
%ADD19R,0.4000X0.6500*%
%ADD20O,0.9500X0.3800*%
%ADD21R,0.9500X0.3800*%
%ADD22R,0.6000X0.9000*%
%ADD23R,0.6000X0.7000*%
%ADD24R,1.0000X1.0000*%
%ADD25R,1.0000X1.0000*%
%ADD26R,0.8000X1.5000*%
%ADD27R,1.0000X1.5000*%
%ADD28O,0.2500X1.4000*%
%ADD29O,1.4000X0.2500*%
%ADD30R,1.8000X1.0000*%
%ADD31R,1.4900X1.4900*%
%ADD32R,0.4950X0.2500*%
%ADD33R,0.6000X0.2500*%
%ADD34R,0.2500X0.4950*%
%ADD35R,0.2500X0.6000*%
%ADD36R,0.6000X1.1500*%
%ADD37R,0.3000X1.1500*%
%ADD38R,0.7800X0.9800*%
%ADD39R,3.0000X2.1000*%
%ADD40R,1.6000X0.8000*%
%ADD41C,0.5080*%
%ADD42C,0.3810*%
%ADD43C,0.2540*%
%ADD44C,0.3048*%
%ADD45O,1.0000X1.6000*%
%ADD46O,1.0000X2.1000*%
%ADD47C,0.6000*%
G36*
X693000Y491448D02*
X691950Y490398D01*
X690000D01*
Y492898D01*
X693000D01*
Y491448D01*
D02*
G37*
G36*
X696250Y486648D02*
X693750D01*
Y488598D01*
X694800Y489648D01*
X696250D01*
Y486648D01*
D02*
G37*
G36*
X693000Y511848D02*
Y510398D01*
X690000D01*
Y512898D01*
X691950D01*
X693000Y511848D01*
D02*
G37*
G36*
X696250Y513648D02*
X694800D01*
X693750Y514698D01*
Y516648D01*
X696250D01*
Y513648D01*
D02*
G37*
G36*
X716250Y488598D02*
Y486648D01*
X713750D01*
Y489648D01*
X715200D01*
X716250Y488598D01*
D02*
G37*
G36*
X720000Y490398D02*
X718050D01*
X717000Y491448D01*
Y492898D01*
X720000D01*
Y490398D01*
D02*
G37*
G36*
X716250Y514698D02*
X715200Y513648D01*
X713750D01*
Y516648D01*
X716250D01*
Y514698D01*
D02*
G37*
G36*
X720000Y510398D02*
X717000D01*
Y511848D01*
X718050Y512898D01*
X720000D01*
Y510398D01*
D02*
G37*
D10*
X576582Y468480D02*
D03*
Y481480D02*
D03*
X751842Y747880D02*
D03*
Y760880D02*
D03*
X699768Y707540D02*
D03*
Y694540D02*
D03*
X739141Y657711D02*
D03*
Y670711D02*
D03*
X626108Y551330D02*
D03*
Y538330D02*
D03*
X613408Y556410D02*
D03*
Y543410D02*
D03*
X731518Y508150D02*
D03*
Y495150D02*
D03*
D11*
X722780Y461012D02*
D03*
X709780D02*
D03*
X722780Y472442D02*
D03*
X709780D02*
D03*
X751690Y736598D02*
D03*
X764690D02*
D03*
X745640Y847092D02*
D03*
X732640D02*
D03*
X756770Y847088D02*
D03*
X769770D02*
D03*
X707240Y669288D02*
D03*
X720240D02*
D03*
X707240Y657858D02*
D03*
X720240D02*
D03*
X650390Y655322D02*
D03*
X637390D02*
D03*
X688140Y694680D02*
D03*
Y678180D02*
D03*
X675640Y694680D02*
D03*
Y678180D02*
D03*
X687220Y707392D02*
D03*
X674220D02*
D03*
X567540Y610868D02*
D03*
X580540D02*
D03*
X567540Y588008D02*
D03*
X580540D02*
D03*
X795169Y598171D02*
D03*
X782169D02*
D03*
X626260Y621032D02*
D03*
X613260D02*
D03*
D12*
X593550Y507998D02*
D03*
Y495298D02*
D03*
Y482598D02*
D03*
Y469898D02*
D03*
X664050Y507998D02*
D03*
Y495298D02*
D03*
Y482598D02*
D03*
Y469898D02*
D03*
D13*
X801370Y627860D02*
D03*
Y632860D02*
D03*
Y637860D02*
D03*
Y642860D02*
D03*
Y647860D02*
D03*
Y652860D02*
D03*
Y657860D02*
D03*
Y662860D02*
D03*
Y667860D02*
D03*
Y672860D02*
D03*
D14*
X824620Y612460D02*
D03*
X824570Y688260D02*
D03*
D15*
X764542Y746880D02*
D03*
Y761879D02*
D03*
X708662Y745610D02*
D03*
Y760609D02*
D03*
X689612Y833240D02*
D03*
Y848239D02*
D03*
X678182Y833240D02*
D03*
Y848239D02*
D03*
X742948Y830460D02*
D03*
Y815461D02*
D03*
X706122Y772280D02*
D03*
Y787279D02*
D03*
X718818Y787280D02*
D03*
Y772281D02*
D03*
X613408Y608210D02*
D03*
Y593211D02*
D03*
X680718Y666630D02*
D03*
Y651631D02*
D03*
D16*
X739650Y760120D02*
D03*
X730160Y760090D02*
D03*
X720650Y760120D02*
D03*
X739650Y731520D02*
D03*
X730250D02*
D03*
D17*
X720650D02*
D03*
D18*
X763270Y791210D02*
D03*
X783270Y800710D02*
D03*
Y781710D02*
D03*
X702310Y838200D02*
D03*
X722310Y847700D02*
D03*
Y828700D02*
D03*
D19*
X736600Y786250D02*
D03*
Y801250D02*
D03*
X749300Y786250D02*
D03*
Y801250D02*
D03*
X690560Y823500D02*
D03*
Y808500D02*
D03*
X678180Y823500D02*
D03*
Y808500D02*
D03*
D20*
X782980Y814830D02*
D03*
Y833830D02*
D03*
X754380Y814830D02*
D03*
Y824230D02*
D03*
D21*
Y833830D02*
D03*
D22*
X736720Y775968D02*
D03*
X751719D02*
D03*
X833000Y575312D02*
D03*
X818001D02*
D03*
X833000Y563882D02*
D03*
X818001D02*
D03*
X832860Y552452D02*
D03*
X817861D02*
D03*
D23*
X712470Y817880D02*
D03*
X721970Y797880D02*
D03*
X702970D02*
D03*
D24*
X692150Y795490D02*
D03*
X672650Y745490D02*
D03*
D25*
X672150Y795490D02*
D03*
X692150Y745490D02*
D03*
D26*
X526060Y518970D02*
D03*
X513360D02*
D03*
X500660D02*
D03*
X487960D02*
D03*
X475260D02*
D03*
X462560D02*
D03*
X449860D02*
D03*
X437160D02*
D03*
D27*
X413310Y648970D02*
D03*
X549910D02*
D03*
D28*
X654530Y635090D02*
D03*
X658530D02*
D03*
X662530D02*
D03*
X666530D02*
D03*
X670530D02*
D03*
X674530D02*
D03*
X678530D02*
D03*
X682530D02*
D03*
X686530D02*
D03*
X690530D02*
D03*
X694530D02*
D03*
X698530D02*
D03*
X702530D02*
D03*
X706530D02*
D03*
X710530D02*
D03*
X714530D02*
D03*
Y551090D02*
D03*
X710530D02*
D03*
X706530D02*
D03*
X702530D02*
D03*
X698530D02*
D03*
X694530D02*
D03*
X690530D02*
D03*
X686530D02*
D03*
X682530D02*
D03*
X678530D02*
D03*
X674530D02*
D03*
X670530D02*
D03*
X666530D02*
D03*
X662530D02*
D03*
X658530D02*
D03*
X654530D02*
D03*
D29*
X726530Y623090D02*
D03*
Y619090D02*
D03*
Y615090D02*
D03*
Y611090D02*
D03*
Y607090D02*
D03*
Y603090D02*
D03*
Y599090D02*
D03*
Y595090D02*
D03*
Y591090D02*
D03*
Y587090D02*
D03*
Y583090D02*
D03*
Y579090D02*
D03*
Y575090D02*
D03*
Y571090D02*
D03*
Y567090D02*
D03*
Y563090D02*
D03*
X642530D02*
D03*
Y567090D02*
D03*
Y571090D02*
D03*
Y575090D02*
D03*
Y579090D02*
D03*
Y583090D02*
D03*
Y587090D02*
D03*
Y591090D02*
D03*
Y595090D02*
D03*
Y599090D02*
D03*
Y603090D02*
D03*
Y607090D02*
D03*
Y611090D02*
D03*
Y615090D02*
D03*
Y619090D02*
D03*
Y623090D02*
D03*
D30*
X596900Y586740D02*
D03*
Y611740D02*
D03*
D31*
X705000Y501648D02*
D03*
D32*
X689475Y511648D02*
D03*
Y491648D02*
D03*
X720525D02*
D03*
Y511648D02*
D03*
D33*
X690000Y507648D02*
D03*
Y503648D02*
D03*
Y499648D02*
D03*
Y495648D02*
D03*
X720000D02*
D03*
Y499648D02*
D03*
Y503648D02*
D03*
Y507648D02*
D03*
D34*
X695000Y486123D02*
D03*
X715000D02*
D03*
Y517173D02*
D03*
X695000D02*
D03*
D35*
X699000Y486648D02*
D03*
X703000D02*
D03*
X707000D02*
D03*
X711000D02*
D03*
Y516648D02*
D03*
X707000D02*
D03*
X703000D02*
D03*
X699000D02*
D03*
D36*
X833030Y508000D02*
D03*
X841030D02*
D03*
X777030D02*
D03*
X785030D02*
D03*
D37*
X826530D02*
D03*
X821530D02*
D03*
X816530D02*
D03*
X811530D02*
D03*
X806530D02*
D03*
X801530D02*
D03*
X796530D02*
D03*
X791530D02*
D03*
D38*
X808990Y575310D02*
D03*
X793890D02*
D03*
X808990Y563880D02*
D03*
X793890D02*
D03*
X808850Y552450D02*
D03*
X793750D02*
D03*
D39*
X826770Y853690D02*
D03*
Y790190D02*
D03*
D40*
X797770Y828190D02*
D03*
Y815690D02*
D03*
D41*
X720240Y657858D02*
Y669288D01*
X852280Y498031D02*
Y502200D01*
Y460400D02*
Y498031D01*
X765780D02*
Y502200D01*
Y460400D02*
Y498031D01*
X729156Y463374D02*
X763507D01*
X728980Y463550D02*
X729156Y463374D01*
X841490Y505100D02*
X850007D01*
X841030Y505560D02*
X841490Y505100D01*
X841030Y505560D02*
Y508000D01*
X838119Y483870D02*
X852280Y498031D01*
X779941Y483870D02*
X838119D01*
X765780Y498031D02*
X779941Y483870D01*
X765810Y521970D02*
X776570Y511210D01*
X650390Y655322D02*
Y655822D01*
Y654822D02*
Y655322D01*
Y655822D02*
X661494Y666926D01*
Y667844D01*
X661670Y668020D01*
X726264Y793226D02*
X726444Y793406D01*
X726264Y792905D02*
X726444D01*
X720318Y787280D02*
X726264Y793226D01*
X637540Y654972D02*
Y666138D01*
X597822Y654972D02*
X637540D01*
X567540Y588008D02*
Y610868D01*
X640516Y669114D02*
X650064D01*
X637390Y654822D02*
X637540Y654972D01*
Y666138D02*
X640516Y669114D01*
X650064D02*
X650240Y669290D01*
X726264Y793226D02*
Y793586D01*
Y792905D02*
Y793226D01*
X721970Y797880D02*
Y798380D01*
Y797380D02*
Y797880D01*
X735330Y539750D02*
X830460D01*
X833060Y542350D01*
Y575252D01*
X751766Y736674D02*
Y747804D01*
X651510Y759460D02*
Y781050D01*
X655836Y755134D02*
X682506D01*
X651510Y759460D02*
X655836Y755134D01*
X661670Y762000D02*
X665480Y765810D01*
X679450D01*
X685920Y772280D01*
X682506Y755134D02*
X692150Y745490D01*
X685920Y772280D02*
X706122D01*
X682506Y785846D02*
X692150Y795490D01*
X656306Y785846D02*
X682506D01*
X651510Y781050D02*
X656306Y785846D01*
X722430Y796920D02*
X722930D01*
X721970Y797380D02*
X722430Y796920D01*
X722930D02*
X726264Y793586D01*
X726440Y792480D02*
X726616Y792304D01*
X692150Y722630D02*
Y745490D01*
Y712322D02*
Y722630D01*
X687294Y707466D02*
X692150Y712322D01*
X824570Y612510D02*
Y688260D01*
Y612510D02*
X824620Y612460D01*
X795169Y598171D02*
Y598332D01*
X796629Y599792D01*
X806952D01*
X819620Y612460D01*
X824620D01*
X669764Y495300D02*
X674370D01*
X721332Y656766D02*
X728804D01*
X728980Y656590D01*
X720240Y657858D02*
X721332Y656766D01*
X728980Y666750D02*
X733600Y662130D01*
X737181Y659171D02*
X737681D01*
X739141Y657711D01*
X734222Y662130D02*
X737181Y659171D01*
X733600Y662130D02*
X734222D01*
X569000Y626150D02*
X597822Y654972D01*
X569000Y612828D02*
Y626150D01*
Y612328D02*
Y612828D01*
X572592Y616421D01*
X567540Y610868D02*
X569000Y612328D01*
X833000Y575312D02*
X833060Y575252D01*
X565150Y481330D02*
X565225Y481405D01*
X611948Y541950D02*
X613408Y543410D01*
X604429Y541950D02*
X611948D01*
X437160Y487400D02*
X443230Y481330D01*
X565150D01*
X437160Y487400D02*
Y518970D01*
X576507Y468555D02*
X576582Y468480D01*
X565225Y468555D02*
X576507D01*
X565150Y468630D02*
X565225Y468555D01*
X576507Y481405D02*
X576582Y481480D01*
X565225Y481405D02*
X576507D01*
X664050Y495298D02*
Y507998D01*
X525920Y518830D02*
X526060Y518970D01*
X525920Y505600D02*
Y518830D01*
X525780Y505460D02*
X525920Y505600D01*
X722780Y461012D02*
Y472442D01*
X736720Y775968D02*
Y777468D01*
X736260Y777928D02*
X736720Y777468D01*
X734283Y777928D02*
X736260D01*
X726616Y785596D02*
X734283Y777928D01*
X726616Y785596D02*
Y792304D01*
X692150Y795490D02*
X694610Y797950D01*
Y801912D02*
X701688Y808990D01*
X694610Y797950D02*
Y801912D01*
X701688Y808990D02*
X711360D01*
X721970Y798380D01*
X706122Y772281D02*
X718818D01*
X706122Y772280D02*
X706122Y772281D01*
X708602Y745550D02*
X708662Y745610D01*
X692210Y745550D02*
X708602D01*
X692150Y745490D02*
X692210Y745550D01*
X751766Y747804D02*
X751842Y747880D01*
X751690Y736598D02*
X751766Y736674D01*
X764542Y746880D02*
X764616Y746806D01*
Y736673D02*
Y746806D01*
Y736673D02*
X764690Y736598D01*
X689612Y848239D02*
X721271D01*
X678182D02*
X689612D01*
X721271D02*
X721810Y847700D01*
X722310D01*
X722614Y847396D01*
X732336D01*
X732640Y847092D01*
X718818Y772281D02*
X718818Y772281D01*
X704622Y787279D02*
X706122D01*
X704162Y787739D02*
X704622Y787279D01*
X704162Y787739D02*
Y796188D01*
X702970Y797380D02*
X704162Y796188D01*
X702970Y797380D02*
Y797880D01*
X808990Y575310D02*
X808991Y575311D01*
X818000D01*
X818001Y575312D01*
X808850Y552450D02*
X808851Y552451D01*
X817860D01*
X817861Y552452D01*
X808990Y563880D02*
X808991Y563881D01*
X818000D01*
X818001Y563882D01*
X593374Y469722D02*
X593550Y469898D01*
X577824Y469722D02*
X593374D01*
X576582Y468480D02*
X577824Y469722D01*
X593374Y482422D02*
X593550Y482598D01*
X577524Y482422D02*
X593374D01*
X576582Y481480D02*
X577524Y482422D01*
X687220Y707392D02*
X687294Y707466D01*
X699694D01*
X699768Y707540D01*
X674220Y707392D02*
X674930Y706682D01*
Y695390D02*
Y706682D01*
Y695390D02*
X675640Y694680D01*
X624648Y539790D02*
X626108Y538330D01*
X617528Y539790D02*
X624648D01*
X613908Y543410D02*
X617528Y539790D01*
X613408Y543410D02*
X613908D01*
X572592Y616421D02*
Y616809D01*
X576815Y621032D01*
X613260D01*
X596266Y587374D02*
X596900Y586740D01*
X581174Y587374D02*
X596266D01*
X580540Y588008D02*
X581174Y587374D01*
X596464Y611304D02*
X596900Y611740D01*
X580976Y611304D02*
X596464D01*
X580540Y610868D02*
X580976Y611304D01*
X611908Y593211D02*
X613408D01*
X607897Y589200D02*
X611908Y593211D01*
X599360Y589200D02*
X607897D01*
X596900Y586740D02*
X599360Y589200D01*
X612948Y608670D02*
X613408Y608210D01*
X603970Y608670D02*
X612948D01*
X600900Y611740D02*
X603970Y608670D01*
X596900Y611740D02*
X600900D01*
D42*
X678180Y822250D02*
Y823500D01*
X656030Y800100D02*
X678180Y822250D01*
X655320Y800100D02*
X656030D01*
X678180Y823500D02*
X678181Y823501D01*
X788885Y497532D02*
X827802D01*
X831935Y506905D02*
X833030Y508000D01*
X831935Y501665D02*
Y506905D01*
X827802Y497532D02*
X831935Y501665D01*
X785030Y508000D02*
X786125Y506905D01*
Y500291D02*
Y506905D01*
Y500291D02*
X788885Y497532D01*
X774700Y524510D02*
X783935Y515275D01*
X774700Y524510D02*
X774700D01*
X783935Y509095D02*
X785030Y508000D01*
X783935Y509095D02*
Y515275D01*
X763410Y828190D02*
X797770D01*
X764542Y761879D02*
X764602Y761939D01*
X773369D01*
X773430Y762000D01*
X791675Y753575D02*
Y808615D01*
X764542Y746880D02*
X784980D01*
X791675Y753575D01*
X643890Y786130D02*
X651328Y793568D01*
X646122Y748585D02*
X669555D01*
X643890Y750817D02*
Y786130D01*
Y750817D02*
X646122Y748585D01*
X661670Y774700D02*
X672638D01*
X676394Y778456D01*
X651328Y793568D02*
X670228D01*
X769771Y847089D02*
X779779D01*
X779780Y847090D01*
X769770Y847088D02*
X769771Y847089D01*
X738800Y709000D02*
X822338D01*
X730250Y717550D02*
X738800Y709000D01*
X730250Y717550D02*
Y731520D01*
X824570Y688260D02*
Y706768D01*
X822338Y709000D02*
X824570Y706768D01*
X669555Y748585D02*
X672650Y745490D01*
X670228Y793568D02*
X672150Y795490D01*
X676394Y778456D02*
X724633D01*
X730155Y772935D01*
X603250Y629920D02*
X621205D01*
X621624Y629501D01*
Y626168D02*
X626260Y621532D01*
Y620532D02*
Y621532D01*
X621624Y626168D02*
Y629501D01*
X744855Y649605D02*
X750570Y655320D01*
Y661670D02*
X778510Y689610D01*
X750570Y655320D02*
Y661670D01*
X714993Y649605D02*
X744855D01*
X707240Y655470D02*
X707447Y655263D01*
X709335D01*
X714993Y649605D01*
X707240Y657358D02*
Y657858D01*
X730155Y760095D02*
Y772935D01*
Y760095D02*
X730160Y760090D01*
X718818Y787280D02*
X720318D01*
X678180Y808500D02*
X690560D01*
X739650Y757280D02*
Y760120D01*
X751690Y736598D02*
Y737098D01*
X749595Y739193D02*
X751690Y737098D01*
X742011Y739193D02*
X749595D01*
X739524Y741680D02*
X742011Y739193D01*
X728023Y741680D02*
X739524D01*
X730255Y731525D02*
Y739448D01*
X728023Y741680D02*
X730255Y739448D01*
X713488Y741680D02*
X728023D01*
X711257Y743912D02*
X713488Y741680D01*
X711257Y743912D02*
Y744515D01*
X710162Y745610D02*
X711257Y744515D01*
X708662Y745610D02*
X710162D01*
X762305Y827085D02*
X763410Y828190D01*
X793770Y815690D02*
X797770D01*
X791675Y813595D02*
X793770Y815690D01*
X791675Y808615D02*
Y813595D01*
X783770Y800710D02*
X791675Y808615D01*
X783270Y800710D02*
X783770D01*
X690465Y823595D02*
X690560Y823500D01*
X690465Y823595D02*
Y832387D01*
X689612Y833240D02*
X690465Y832387D01*
X782796Y781236D02*
X783270Y781710D01*
X782770D02*
X783270D01*
X754385Y824235D02*
X759455D01*
X744294Y845746D02*
X745640Y847092D01*
X742948Y830460D02*
X743199D01*
X744294Y831555D01*
X751719Y775968D02*
X751780Y775907D01*
Y760941D02*
Y775907D01*
Y760941D02*
X751842Y760880D01*
X678085Y808405D02*
X678180Y808500D01*
X678085Y801425D02*
Y808405D01*
X672150Y795490D02*
X678085Y801425D01*
X762595Y731155D02*
Y734503D01*
X760363Y728923D02*
X762595Y731155D01*
X739655Y728923D02*
X760363D01*
X739650Y728928D02*
Y734360D01*
X762595Y734503D02*
X764690Y736598D01*
X739650Y728928D02*
X739655Y728923D01*
X730250Y731520D02*
X730255Y731525D01*
X739650Y760495D02*
X739655Y760500D01*
X720650Y760120D02*
Y760359D01*
X764042Y761379D02*
X764542Y761879D01*
X751462Y760500D02*
X751842Y760880D01*
X739650Y760120D02*
Y760495D01*
X708906Y760364D02*
X720645D01*
X708662Y760609D02*
X708906Y760364D01*
X751842Y760880D02*
X752341Y761379D01*
X764042D01*
X739655Y760500D02*
X751462D01*
X720645Y760364D02*
X720650Y760359D01*
X770890Y784552D02*
Y801160D01*
X758190Y782320D02*
X768658D01*
X770890Y784552D01*
X757220Y814830D02*
X770890Y801160D01*
X751719Y775968D02*
X777028D01*
X782770Y781710D01*
X762770Y791210D02*
X763270D01*
X754075Y799905D02*
X762770Y791210D01*
X749395Y799905D02*
X754075D01*
X749300Y800000D02*
X749395Y799905D01*
X749300Y800000D02*
Y801250D01*
X754380Y814830D02*
X757220D01*
X755704Y784806D02*
Y789586D01*
Y784806D02*
X758190Y782320D01*
X736600Y800000D02*
X742083Y794517D01*
X750773D01*
X755704Y789586D01*
X736600Y800000D02*
Y801250D01*
X742098Y808452D02*
X747955Y802595D01*
X734750Y810684D02*
Y844981D01*
Y810684D02*
X736982Y808452D01*
X742098D01*
X732640Y847092D02*
X734750Y844981D01*
Y844481D02*
X741002Y838229D01*
X736600Y801250D02*
Y802500D01*
X729283Y804827D02*
X731515Y802595D01*
X729283Y804827D02*
Y832717D01*
X736505Y802595D02*
X736600Y802500D01*
X723800Y838200D02*
X729283Y832717D01*
X731515Y802595D02*
X736505D01*
X743575Y814835D02*
X754375D01*
X747955Y802595D02*
X749205D01*
X702310Y838200D02*
X723800D01*
X736600Y786250D02*
X749300D01*
X750624Y777063D02*
X751719Y775968D01*
X750624Y777063D02*
Y783676D01*
X749300Y785000D02*
X750624Y783676D01*
X749300Y785000D02*
Y786250D01*
X780140Y833830D02*
X782980D01*
X771865Y842105D02*
X780140Y833830D01*
X771865Y842105D02*
Y844993D01*
X769770Y847088D02*
X771865Y844993D01*
X756770Y846588D02*
Y847088D01*
Y846588D02*
X762305Y841053D01*
Y827085D02*
Y841053D01*
X759455Y824235D02*
X762305Y827085D01*
X754380Y824230D02*
X754385Y824235D01*
X747169Y838229D02*
X751535Y833864D01*
X741002Y838229D02*
X747169D01*
X751535Y833835D02*
Y833864D01*
Y833835D02*
X751540Y833830D01*
X754380D01*
X756768Y847090D02*
X756770Y847088D01*
X745642Y847090D02*
X756768D01*
X745640Y847092D02*
X745642Y847090D01*
X751540Y824230D02*
X754380D01*
X746405Y829365D02*
X751540Y824230D01*
X744043Y829365D02*
X746405D01*
X742948Y830460D02*
X744043Y829365D01*
X754375Y814835D02*
X754380Y814830D01*
X742948Y815461D02*
X743575Y814835D01*
X749205Y802595D02*
X749300Y802500D01*
Y801250D02*
Y802500D01*
X720715Y821061D02*
Y827605D01*
X718483Y818829D02*
X720715Y821061D01*
X712470Y817880D02*
X713419Y818829D01*
X718483D01*
X720715Y827605D02*
X721810Y828700D01*
X722310D01*
X694930Y817880D02*
X712470D01*
X690560Y822250D02*
X694930Y817880D01*
X690560Y822250D02*
Y823500D01*
X678181Y833239D02*
X678182Y833240D01*
X678181Y823501D02*
Y833239D01*
D43*
X588711Y629460D02*
X595521Y636270D01*
X629350D01*
X759460Y589280D02*
X769620D01*
X816760Y519914D02*
X821690Y524844D01*
Y525780D01*
X763270Y560070D02*
X782320D01*
X816530Y508000D02*
X816760Y508230D01*
Y519914D01*
X811530Y508000D02*
Y523574D01*
X812800Y524844D01*
Y525780D01*
X806530Y508000D02*
Y522604D01*
X803910Y525224D02*
X806530Y522604D01*
X803910Y525224D02*
Y525780D01*
X801300Y508230D02*
X801530Y508000D01*
X801300Y508230D02*
Y518564D01*
X795020Y524844D02*
X801300Y518564D01*
X795020Y524844D02*
Y525780D01*
X796300Y508230D02*
Y514340D01*
X784860Y525780D02*
X796300Y514340D01*
Y508230D02*
X796530Y508000D01*
X760730Y557530D02*
X763270Y560070D01*
X720090Y557530D02*
X760730D01*
X670530Y607090D02*
X720090Y557530D01*
X670530Y607090D02*
Y635090D01*
X731668Y508000D02*
X732938Y509270D01*
X662510Y635110D02*
Y645228D01*
X653120Y652092D02*
X655646D01*
X662510Y645228D01*
X658510Y635110D02*
X658530Y635090D01*
X658510Y635110D02*
Y642220D01*
X653574Y647156D02*
X658510Y642220D01*
X645056Y647156D02*
X653574D01*
X637390Y654822D02*
X645056Y647156D01*
X650390Y654822D02*
X653120Y652092D01*
X662510Y635110D02*
X662530Y635090D01*
X661670Y622300D02*
X663992D01*
X666510Y635070D02*
X666530Y635090D01*
X666510Y624818D02*
Y635070D01*
X663992Y622300D02*
X666510Y624818D01*
X658550Y625420D02*
X661670Y622300D01*
X658530Y635090D02*
X658550Y635070D01*
Y625420D02*
Y635070D01*
X673678Y647579D02*
X674510Y646748D01*
X673678Y647579D02*
Y664902D01*
X720525Y511648D02*
Y521535D01*
X718820Y523240D02*
X720525Y521535D01*
X711020Y516668D02*
Y521752D01*
X712508Y523240D01*
X718820D01*
X711000Y516648D02*
X711020Y516668D01*
X726570Y527050D02*
X734190Y519430D01*
X702740Y538390D02*
X714080Y527050D01*
X726570D01*
X734190Y519430D02*
X745490D01*
X702530Y545380D02*
Y551090D01*
Y545380D02*
X702740Y545170D01*
Y538390D02*
Y545170D01*
X706550Y539968D02*
X708038Y538480D01*
X706550Y539968D02*
Y551070D01*
X708038Y538480D02*
X719872D01*
X711000Y507648D02*
Y516648D01*
X705000Y501648D02*
X711000Y507648D01*
X758190Y680720D02*
X778510Y701040D01*
X703580Y680720D02*
X758190D01*
X795169Y598332D02*
Y598671D01*
X663020Y528836D02*
Y530940D01*
X655982Y524216D02*
Y529432D01*
X663020Y528836D02*
X663120Y528736D01*
X663020Y530940D02*
X674510Y542430D01*
X655320Y523554D02*
X655982Y524216D01*
X670560Y521970D02*
Y522467D01*
X670174Y522854D02*
X670560Y522467D01*
X670174Y522854D02*
X670560Y523240D01*
Y532130D01*
X638958Y623090D02*
X642530D01*
X638938Y623110D02*
X638958Y623090D01*
X638938Y623110D02*
Y626682D01*
X629350Y636270D02*
X638938Y626682D01*
X720650Y731520D02*
X720726Y731443D01*
Y720648D02*
Y731443D01*
Y720648D02*
X720803Y720572D01*
X678842Y534062D02*
X682510Y537730D01*
X678842Y523902D02*
Y534062D01*
X682510Y537730D02*
Y551070D01*
X684530Y532130D02*
X686530Y534130D01*
X684530Y519866D02*
Y532130D01*
X686530Y534130D02*
Y551090D01*
X678180Y523240D02*
X678842Y523902D01*
X678530Y540100D02*
Y551090D01*
X670560Y532130D02*
X678530Y540100D01*
X670510Y543960D02*
Y551070D01*
X655982Y529432D02*
X670510Y543960D01*
X674510Y542430D02*
Y551070D01*
X682510D02*
X682530Y551090D01*
X690550Y526325D02*
Y551070D01*
X684530Y519866D02*
X686018Y518378D01*
X694980D01*
X690550Y526325D02*
X690987Y525887D01*
X674510Y551070D02*
X674530Y551090D01*
X670510Y551070D02*
X670530Y551090D01*
X715000Y486123D02*
X715003Y486126D01*
X724145D01*
X724148Y486128D01*
X767420Y611090D02*
X778631Y622302D01*
X733239Y493430D02*
X737649Y497840D01*
X610678Y553680D02*
X613408Y556410D01*
X604146Y553680D02*
X610678D01*
X602916Y552450D02*
X604146Y553680D01*
X601980Y552450D02*
X602916D01*
X603250Y560070D02*
X607060Y563880D01*
X557530Y560070D02*
X603250D01*
X509270Y567690D02*
X616656D01*
X491490Y571500D02*
X615078D01*
X482600Y575310D02*
X613500D01*
X477520Y579120D02*
X610409D01*
X622379Y591090D01*
X449860Y551460D02*
X477520Y579120D01*
X613500Y575310D02*
X625280Y587090D01*
X462560Y555270D02*
X482600Y575310D01*
X615078Y571500D02*
X626668Y583090D01*
X475260Y555270D02*
X491490Y571500D01*
X616656Y567690D02*
X628056Y579090D01*
X500660Y559080D02*
X509270Y567690D01*
X607060Y563880D02*
X618234D01*
X683260Y476250D02*
X693420D01*
X647700Y527050D02*
X662530Y541880D01*
X647700Y493698D02*
Y527050D01*
X662530Y541880D02*
Y551090D01*
X636270Y477520D02*
Y528320D01*
X654530Y545380D02*
Y551090D01*
X653310Y545360D02*
X654510D01*
X654530Y545380D01*
X636270Y528320D02*
X653310Y545360D01*
X656100Y541550D02*
X656100D01*
X658530Y543980D01*
Y551090D01*
X642620Y490944D02*
Y528070D01*
X656100Y541550D01*
X642620Y542749D02*
Y550290D01*
X608531Y508660D02*
X642620Y542749D01*
Y550290D02*
X652960Y560630D01*
X693420Y465729D02*
Y476250D01*
X699770Y472440D02*
X703000Y475670D01*
X512654Y505425D02*
Y518264D01*
X513360Y518970D01*
X642620Y490944D02*
X657314Y476250D01*
X673352D02*
X674840Y474762D01*
Y465038D02*
Y474762D01*
X657314Y476250D02*
X673352D01*
Y463550D02*
X674840Y465038D01*
X613104Y495298D02*
X644852Y463550D01*
X673352D01*
X593550Y495298D02*
X613104D01*
X647700Y493698D02*
X658800Y482598D01*
X664050D01*
X626608Y538330D02*
X638280Y550002D01*
Y563070D01*
X638300Y563090D02*
X642530D01*
X638280Y563070D02*
X638300Y563090D01*
X629338Y561008D02*
X635400Y567070D01*
X664100Y560630D02*
X666510Y558220D01*
X593550Y507998D02*
X594212Y508660D01*
X666510Y551110D02*
Y558220D01*
X652960Y560630D02*
X664100D01*
X594212Y508660D02*
X608531D01*
X666510Y551110D02*
X666530Y551090D01*
X643892Y469898D02*
X664050D01*
X636270Y477520D02*
X643892Y469898D01*
X737649Y497840D02*
X741680D01*
X713746Y480060D02*
X740410D01*
X711020Y482786D02*
X713746Y480060D01*
X740410D02*
X748950Y488600D01*
X487680Y518690D02*
X487960Y518970D01*
X487680Y505460D02*
Y518690D01*
X500660Y518970D02*
Y559080D01*
X475260Y518970D02*
Y555270D01*
X462560Y518970D02*
Y555270D01*
X449860Y518970D02*
Y551460D01*
X731518Y495150D02*
X733239Y493430D01*
X745490Y519430D02*
X748950Y515970D01*
Y488600D02*
Y515970D01*
X732938Y509270D02*
X743410D01*
X710538Y687678D02*
X711200Y688340D01*
X704188Y687678D02*
X710538D01*
X695438Y678928D02*
X704188Y687678D01*
X690530Y551090D02*
X690550Y551070D01*
X695000Y517173D02*
Y518358D01*
X694980Y518378D02*
X695000Y518358D01*
X693420Y476250D02*
X698980Y481810D01*
X694908Y464242D02*
X707050D01*
X693420Y465729D02*
X694908Y464242D01*
X707050D02*
X709780Y461512D01*
Y461012D02*
Y461512D01*
X698980Y486628D02*
X699000Y486648D01*
X698980Y481810D02*
Y486628D01*
X703000Y475670D02*
Y486648D01*
X707000D02*
X707020Y486628D01*
Y475702D02*
Y486628D01*
Y475702D02*
X709780Y472942D01*
Y472442D02*
Y472942D01*
X703000Y516648D02*
Y530170D01*
X698530Y534640D02*
Y551090D01*
Y534640D02*
X703000Y530170D01*
X694530Y532706D02*
Y551090D01*
Y532706D02*
X698980Y528256D01*
Y516668D02*
Y528256D01*
Y516668D02*
X699000Y516648D01*
X721360Y539968D02*
Y550962D01*
X719872Y538480D02*
X721360Y539968D01*
X731518Y508150D02*
X731668Y508000D01*
X720525Y511648D02*
X720545Y511628D01*
X727540D01*
X731018Y508150D01*
X731518D01*
X721360Y550962D02*
X722848Y552450D01*
X793750D01*
X706530Y551090D02*
X706550Y551070D01*
X726530Y579090D02*
X726550Y579070D01*
X737920D01*
X746760Y570230D01*
X726530Y583090D02*
X742384D01*
X746354Y579120D01*
X746760D01*
X726550Y587070D02*
X748970D01*
X768530Y567510D02*
X791260D01*
X748970Y587070D02*
X768530Y567510D01*
X726550Y591070D02*
X751320D01*
X763450Y578940D01*
X791260D01*
X726530Y595090D02*
X753650D01*
X759460Y589280D01*
X726530Y599090D02*
X758874D01*
X761064Y596900D01*
X762000D01*
X726530Y587090D02*
X726550Y587070D01*
X791260Y567510D02*
X793890Y564880D01*
Y563880D02*
Y564880D01*
X726530Y591090D02*
X726550Y591070D01*
X791260Y578940D02*
X793890Y576310D01*
Y575310D02*
Y576310D01*
X726530Y603090D02*
X777749D01*
X782169Y598671D01*
Y598171D02*
Y598671D01*
X801370Y604872D02*
Y627860D01*
X795169Y598671D02*
X801370Y604872D01*
X726530Y607090D02*
X773913D01*
X777695Y610872D01*
X778631D01*
X726530Y611090D02*
X767420D01*
X726530Y615090D02*
X759989D01*
X778631Y633732D01*
X726530Y619090D02*
X752560D01*
X778631Y645162D01*
X726530Y623090D02*
X745129D01*
X778631Y656592D01*
X714530Y635090D02*
X745699D01*
X778631Y668022D01*
X748030Y645160D02*
X755650Y652780D01*
X712038Y645160D02*
X748030D01*
X755650Y652780D02*
Y656470D01*
X778631Y679452D01*
X710550Y635110D02*
Y643672D01*
X712038Y645160D01*
X710530Y635090D02*
X710550Y635110D01*
X738641Y670711D02*
X739141D01*
X732442Y676910D02*
X738641Y670711D01*
X714362Y676910D02*
X732442D01*
X720525Y491648D02*
X720545Y491668D01*
X727537D01*
X731018Y495150D01*
X731518D01*
X711000Y486648D02*
X711020Y486628D01*
Y482786D02*
Y486628D01*
X782008Y598010D02*
X782169Y598171D01*
X699617Y676757D02*
X703580Y680720D01*
X707240Y669788D02*
X714362Y676910D01*
X699617Y671218D02*
Y676757D01*
X695960Y648497D02*
X698510Y645947D01*
X695960Y648497D02*
Y667561D01*
X699617Y671218D01*
X707240Y669288D02*
Y669788D01*
X692150Y670098D02*
X695438Y673386D01*
Y678928D01*
X706995Y666504D02*
X707240Y666748D01*
X699770Y650075D02*
Y665057D01*
X701216Y666504D02*
X706995D01*
X699770Y665057D02*
X701216Y666504D01*
X692150Y647918D02*
Y670098D01*
X678990Y664902D02*
X680718Y666630D01*
X673678Y664902D02*
X678990D01*
X688140Y678180D02*
Y678680D01*
X696538Y687078D01*
Y691810D01*
X699268Y694540D01*
X699768D01*
X688140Y678180D02*
X688340Y677980D01*
Y659253D02*
Y677980D01*
X675640Y694180D02*
Y694680D01*
X668020Y686560D02*
X675640Y694180D01*
X668020Y670560D02*
Y686560D01*
Y670560D02*
X673678Y664902D01*
X680718Y651631D02*
X682218D01*
X683948Y653361D01*
Y654861D01*
X688340Y659253D01*
X678530Y635090D02*
Y649901D01*
X680260Y651631D01*
X680718D01*
X674510Y635110D02*
X674530Y635090D01*
X674510Y635110D02*
Y646748D01*
X686760Y646430D02*
X690662D01*
X692150Y647918D01*
X682550Y635110D02*
Y642220D01*
X682530Y635090D02*
X682550Y635110D01*
Y642220D02*
X686760Y646430D01*
X699770Y650075D02*
X702510Y647335D01*
X698510Y635110D02*
Y645947D01*
Y635110D02*
X698530Y635090D01*
X635400Y567070D02*
X642510D01*
X629338Y554060D02*
Y561008D01*
X626108Y538330D02*
X626608D01*
X642510Y567070D02*
X642530Y567090D01*
X626608Y551330D02*
X629338Y554060D01*
X626108Y551330D02*
X626608D01*
X616138Y559140D02*
X620100D01*
X632030Y571070D02*
X642510D01*
X620100Y559140D02*
X632030Y571070D01*
X628056Y579090D02*
X642530D01*
X625280Y587090D02*
X642530D01*
X626668Y583090D02*
X642530D01*
X629424Y575070D02*
X642510D01*
X618234Y563880D02*
X629424Y575070D01*
X642510Y571070D02*
X642530Y571090D01*
X613408Y556410D02*
X616138Y559140D01*
X642510Y575070D02*
X642530Y575090D01*
X622379Y591090D02*
X642530D01*
X642510Y615110D02*
X642530Y615090D01*
X631682Y615110D02*
X642510D01*
X626260Y620532D02*
X631682Y615110D01*
X702510Y635110D02*
X702530Y635090D01*
X702510Y635110D02*
Y647335D01*
X706530Y635090D02*
Y654608D01*
X707240Y655318D01*
X628787Y607090D02*
X642530D01*
X614908Y593211D02*
X628787Y607090D01*
X613408Y593211D02*
X614908D01*
X617788Y611090D02*
X642530D01*
X614908Y608210D02*
X617788Y611090D01*
X613408Y608210D02*
X614908D01*
D44*
X778510Y701040D02*
X801370Y678180D01*
Y672860D02*
Y678180D01*
X778631Y623100D02*
X785622Y630091D01*
X778631Y622302D02*
Y623100D01*
X791426Y642836D02*
X801346D01*
X785622Y630091D02*
Y637032D01*
X791426Y642836D01*
X789940Y622180D02*
Y633131D01*
X778631Y610872D02*
X789940Y622180D01*
X778631Y633732D02*
X779196Y634296D01*
X778631Y656592D02*
X779430D01*
X780698Y657860D01*
X801370D01*
X778631Y668022D02*
X779430D01*
X784568Y662884D01*
X801346D01*
X778631Y679452D02*
X790199Y667884D01*
X790076Y647836D02*
X801346D01*
X779196Y636956D02*
X790076Y647836D01*
X779196Y634296D02*
Y636956D01*
X801346Y667884D02*
X801370Y667860D01*
X790199Y667884D02*
X801346D01*
Y662884D02*
X801370Y662860D01*
X801346Y652836D02*
X801370Y652860D01*
X787104Y652836D02*
X801346D01*
X779430Y645162D02*
X787104Y652836D01*
X778631Y645162D02*
X779430D01*
X801346Y647836D02*
X801370Y647860D01*
X801346Y642836D02*
X801370Y642860D01*
X789940Y633131D02*
X794645Y637836D01*
X801346D01*
X801370Y637860D01*
D45*
X852280Y460400D02*
D03*
X765780D02*
D03*
D46*
X852280Y502200D02*
D03*
X765780D02*
D03*
D47*
X655320Y800100D02*
D03*
X588711Y629460D02*
D03*
X769620Y589280D02*
D03*
X821690Y525780D02*
D03*
X782320Y560070D02*
D03*
X812800Y525780D02*
D03*
X784860D02*
D03*
X774700Y524510D02*
D03*
X765810Y521970D02*
D03*
X803910Y525780D02*
D03*
X795020D02*
D03*
X650240Y669290D02*
D03*
X661670Y668020D02*
D03*
X778510Y701040D02*
D03*
X735330Y539750D02*
D03*
X773430Y762000D02*
D03*
X661670Y774700D02*
D03*
Y762000D02*
D03*
X692150Y722630D02*
D03*
X779780Y847090D02*
D03*
X760730Y726440D02*
D03*
X663120Y528736D02*
D03*
X655320Y523554D02*
D03*
X670560Y521970D02*
D03*
X603250Y629920D02*
D03*
X720803Y720572D02*
D03*
X690987Y525887D02*
D03*
X678180Y523240D02*
D03*
X674370Y495300D02*
D03*
X724148Y486128D02*
D03*
X728980Y656590D02*
D03*
X778631Y622302D02*
D03*
X728980Y666750D02*
D03*
X565150Y481330D02*
D03*
X601980Y539750D02*
D03*
Y552450D02*
D03*
X557530Y560070D02*
D03*
X683260Y476250D02*
D03*
X699770Y472440D02*
D03*
X512654Y505425D02*
D03*
X565150Y468630D02*
D03*
X728980Y463550D02*
D03*
X741680Y497840D02*
D03*
X567690Y599440D02*
D03*
X487680Y505460D02*
D03*
X525780D02*
D03*
X743410Y509270D02*
D03*
X711200Y688340D02*
D03*
X746760Y579120D02*
D03*
Y570230D02*
D03*
X762000Y596900D02*
D03*
X778631Y633732D02*
D03*
Y656592D02*
D03*
Y668022D02*
D03*
Y679452D02*
D03*
X778510Y689610D02*
D03*
X726440Y792480D02*
D03*
X784860Y825500D02*
D03*
X778631Y610872D02*
D03*
Y645162D02*
D03*
M02*
