G04*
G04 #@! TF.GenerationSoftware,Altium Limited,Altium Designer,20.0.13 (296)*
G04*
G04 Layer_Physical_Order=2*
G04 Layer_Color=16711680*
%FSLAX44Y44*%
%MOMM*%
G71*
G01*
G75*
%ADD22R,0.6000X0.9000*%
%ADD41C,0.5080*%
%ADD42C,0.3810*%
%ADD43C,0.2540*%
%ADD45O,1.0000X1.6000*%
%ADD46O,1.0000X2.1000*%
%ADD47C,0.6000*%
D22*
X786251Y690882D02*
D03*
X801250D02*
D03*
X786251Y668022D02*
D03*
X801250D02*
D03*
X786251Y645162D02*
D03*
X801250D02*
D03*
X786251Y633732D02*
D03*
X801250D02*
D03*
X786251Y610872D02*
D03*
X801250D02*
D03*
X786251Y679452D02*
D03*
X801250D02*
D03*
X786251Y656592D02*
D03*
X801250D02*
D03*
X786251Y622302D02*
D03*
X801250D02*
D03*
D41*
Y679452D02*
Y690882D01*
Y668022D02*
Y679452D01*
Y656592D02*
Y668022D01*
Y645162D02*
Y656592D01*
Y633732D02*
Y645162D01*
Y622302D02*
Y633732D01*
Y610872D02*
Y622302D01*
X760730Y726440D02*
Y769620D01*
X798830Y807720D02*
Y839470D01*
X760730Y769620D02*
X798830Y807720D01*
X673100Y859790D02*
X778510D01*
X798830Y839470D01*
X603250Y629920D02*
Y789940D01*
X673100Y859790D01*
X655320Y800100D02*
X674370Y781050D01*
X588711Y531561D02*
Y629460D01*
X549910Y492760D02*
X588711Y531561D01*
X518160Y492760D02*
X549910D01*
X512654Y498266D02*
X518160Y492760D01*
X512654Y498266D02*
Y505425D01*
X612140Y550381D02*
Y725170D01*
X661670Y774700D01*
X595630Y533400D02*
X601980Y539750D01*
X595630Y523240D02*
Y533400D01*
X541020Y468630D02*
X595630Y523240D01*
X753110Y509270D02*
X765810Y521970D01*
X743410Y509270D02*
X753110D01*
X650240Y669290D02*
X660400Y659130D01*
X726191D01*
X650240Y680720D02*
X692150Y722630D01*
X650240Y669290D02*
Y680720D01*
X661670Y668020D02*
X693420D01*
X727461D01*
X693420D02*
Y699334D01*
X696396Y702310D01*
X726004D01*
X728731Y666750D02*
X728980D01*
X727461Y668020D02*
X728731Y666750D01*
X726191Y659130D02*
X728731Y656590D01*
X728980D01*
X782531Y700864D02*
X785791Y697604D01*
X770890Y705684D02*
X773866Y708660D01*
X785791Y691342D02*
X786251Y690882D01*
X773866Y708660D02*
X797814D01*
X785791Y691342D02*
Y697604D01*
X770890Y697230D02*
Y705684D01*
X778686Y700864D02*
X782531D01*
X778510Y701040D02*
X778686Y700864D01*
X800790Y691342D02*
X801250Y690882D01*
X797814Y708660D02*
X800790Y705684D01*
Y691342D02*
Y705684D01*
X770890Y697230D02*
X778510Y689610D01*
X735330Y504439D02*
Y539750D01*
Y504439D02*
X741680Y498089D01*
X624840Y718820D02*
X661670Y755650D01*
Y762000D01*
X728980Y847090D02*
X779780D01*
X728980Y705286D02*
Y730250D01*
X726004Y702310D02*
X728980Y705286D01*
X704850Y754380D02*
X728980Y730250D01*
X704850Y754380D02*
Y822960D01*
X728980Y847090D01*
X726440Y792480D02*
X751840D01*
X784860Y825500D01*
X674370Y746760D02*
Y781050D01*
X612140Y550381D02*
X648171Y514350D01*
X662940D02*
X670560Y521970D01*
X648171Y514350D02*
X662940D01*
X639835Y538725D02*
X640149D01*
X655320Y523554D01*
X662764Y529092D02*
Y531036D01*
X624840Y553720D02*
X639835Y538725D01*
X662764Y529092D02*
X663120Y528736D01*
X633730Y560070D02*
X662764Y531036D01*
X633730Y706120D02*
X674370Y746760D01*
X633730Y560070D02*
Y706120D01*
X624840Y553720D02*
Y718820D01*
X621790Y468630D02*
X634490Y455930D01*
X565150Y481330D02*
X661670D01*
X674370Y468630D01*
X634490Y455930D02*
X721111D01*
X728731Y463550D01*
X690987Y481472D02*
Y525887D01*
Y481472D02*
X699770Y472689D01*
X674370Y468630D02*
Y495300D01*
X713280Y465630D02*
Y583740D01*
X736600Y607060D02*
Y663598D01*
X713280Y583740D02*
X736600Y607060D01*
X723972Y486304D02*
Y494942D01*
Y486304D02*
X724148Y486128D01*
X723900Y495013D02*
X723972Y494942D01*
X723900Y575217D02*
X745490Y596807D01*
Y685364D01*
X723900Y495013D02*
Y575217D01*
X729156Y666574D02*
X733624D01*
X736600Y663598D01*
X728980Y666750D02*
X729156Y666574D01*
X742514Y688340D02*
X745490Y685364D01*
X711200Y688340D02*
X742514D01*
X778631Y622302D02*
X786251D01*
X741680Y497840D02*
Y498089D01*
X728731Y463550D02*
X728980D01*
X565150Y468630D02*
X621790D01*
X674370D02*
X677370Y465630D01*
X713280D01*
X541020Y468630D02*
X565150D01*
X516890D02*
X541020D01*
X567690Y524510D02*
Y599440D01*
X548640Y505460D02*
X567690Y524510D01*
X713280Y465630D02*
X721360Y473710D01*
X699770Y472440D02*
Y472689D01*
X504190Y481330D02*
X516890Y468630D01*
X507166Y516890D02*
X518160D01*
X504190Y513914D02*
X507166Y516890D01*
X504190Y481330D02*
Y513914D01*
X525604Y505636D02*
Y514174D01*
X522628Y517150D02*
X525604Y514174D01*
X518420Y517150D02*
X522628D01*
X518160Y516890D02*
X518420Y517150D01*
X525604Y505636D02*
X525780Y505460D01*
X741504Y476686D02*
Y497664D01*
X738528Y473710D02*
X741504Y476686D01*
X721360Y473710D02*
X738528D01*
X729156Y463726D02*
X741856D01*
X752276Y474146D02*
Y500155D01*
X741856Y463726D02*
X752276Y474146D01*
X728980Y463550D02*
X729156Y463726D01*
X741504Y497664D02*
X741680Y497840D01*
X525780Y505460D02*
X548640D01*
X743410Y509021D02*
Y509270D01*
Y509021D02*
X752276Y500155D01*
X778631Y633732D02*
X786251D01*
X778631Y656592D02*
X786251D01*
X778631Y668022D02*
X786251D01*
X778631Y679452D02*
X786251D01*
X778631Y610872D02*
X786251D01*
X778631Y645162D02*
X786251D01*
D42*
X795020Y504190D02*
X832838D01*
X773430Y762000D02*
X838835Y696595D01*
Y510187D02*
Y696595D01*
X832838Y504190D02*
X838835Y510187D01*
X774700Y524510D02*
X795020Y504190D01*
X641525Y571325D02*
Y691055D01*
X684530Y734060D01*
X641525Y571325D02*
X678180Y534670D01*
X707315Y734060D02*
X720803Y720572D01*
X684530Y734060D02*
X707315D01*
X678180Y523240D02*
Y534670D01*
D43*
X762000Y596900D02*
X806450D01*
X834390Y568960D01*
X769620Y589280D02*
X805180D01*
X829310Y565150D01*
X834390Y512028D02*
Y568960D01*
X795020Y525780D02*
X795682Y525118D01*
Y516228D02*
Y525118D01*
Y516228D02*
X801370Y510540D01*
X832902D02*
X834390Y512028D01*
X801370Y510540D02*
X832902D01*
X829310Y521970D02*
Y565150D01*
X825500Y518160D02*
X829310Y521970D01*
X814288Y518160D02*
X825500D01*
X821690Y525780D02*
Y565150D01*
X807720Y579120D02*
X821690Y565150D01*
X746760Y579120D02*
X807720D01*
X812800Y519648D02*
Y525780D01*
Y519648D02*
X814288Y518160D01*
X803910Y525780D02*
Y553720D01*
X746760Y570230D02*
X787400D01*
X803910Y553720D01*
X782320Y534670D02*
X784860Y532130D01*
X782320Y534670D02*
Y560070D01*
X784860Y525780D02*
Y532130D01*
X680738Y502920D02*
X683260Y500398D01*
X614898Y502920D02*
X680738D01*
X683260Y476250D02*
Y500398D01*
X608770Y509048D02*
X614898Y502920D01*
X601980Y551514D02*
Y552450D01*
Y551514D02*
X608770Y544724D01*
Y509048D02*
Y544724D01*
X542290Y560070D02*
X557530D01*
X487680Y505460D02*
X542290Y560070D01*
D45*
X852280Y460400D02*
D03*
X765780D02*
D03*
D46*
X852280Y502200D02*
D03*
X765780D02*
D03*
D47*
X655320Y800100D02*
D03*
X588711Y629460D02*
D03*
X769620Y589280D02*
D03*
X821690Y525780D02*
D03*
X782320Y560070D02*
D03*
X812800Y525780D02*
D03*
X784860D02*
D03*
X774700Y524510D02*
D03*
X765810Y521970D02*
D03*
X803910Y525780D02*
D03*
X795020D02*
D03*
X650240Y669290D02*
D03*
X661670Y668020D02*
D03*
X778510Y701040D02*
D03*
X735330Y539750D02*
D03*
X773430Y762000D02*
D03*
X661670Y774700D02*
D03*
Y762000D02*
D03*
X692150Y722630D02*
D03*
X779780Y847090D02*
D03*
X760730Y726440D02*
D03*
X663120Y528736D02*
D03*
X655320Y523554D02*
D03*
X670560Y521970D02*
D03*
X603250Y629920D02*
D03*
X720803Y720572D02*
D03*
X690987Y525887D02*
D03*
X678180Y523240D02*
D03*
X674370Y495300D02*
D03*
X724148Y486128D02*
D03*
X728980Y656590D02*
D03*
X778631Y622302D02*
D03*
X728980Y666750D02*
D03*
X565150Y481330D02*
D03*
X601980Y539750D02*
D03*
Y552450D02*
D03*
X557530Y560070D02*
D03*
X683260Y476250D02*
D03*
X699770Y472440D02*
D03*
X512654Y505425D02*
D03*
X565150Y468630D02*
D03*
X728980Y463550D02*
D03*
X741680Y497840D02*
D03*
X567690Y599440D02*
D03*
X487680Y505460D02*
D03*
X525780D02*
D03*
X743410Y509270D02*
D03*
X711200Y688340D02*
D03*
X746760Y579120D02*
D03*
Y570230D02*
D03*
X762000Y596900D02*
D03*
X778631Y633732D02*
D03*
Y656592D02*
D03*
Y668022D02*
D03*
Y679452D02*
D03*
X778510Y689610D02*
D03*
X726440Y792480D02*
D03*
X784860Y825500D02*
D03*
X778631Y610872D02*
D03*
Y645162D02*
D03*
M02*
