M48
;Layer_Color=9474304
;FILE_FORMAT=4:4
METRIC,LZ
;TYPE=PLATED
T1F00S00C0.4000
%
T01
X0079502Y0052578
X0080391
X008128
X0082169
X0078486
X007747Y0052451
X0076581Y0052197
X0074341Y0050927
X0074168Y0049784
X00724148Y00486128
X0072898Y0046355
X0069977Y0047244
X0068326Y0047625
X0067437Y004953
X0067056Y0052197
X0067818Y0052324
X00690987Y00525887
X0066312Y00528736
X0065532Y00523554
X0060198Y0053975
Y0055245
X0055753Y0056007
X0056769Y0059944
X00588711Y0062946
X0060325Y0062992
X0065024Y0066929
X0066167Y0066802
X0072898Y0066675
Y0065659
X007112Y0068834
X00720803Y00720572
X0069215Y0072263
X0066167Y00762
Y007747
X0072644Y0079248
X0077343Y00762
X0076073Y0072644
X0077851Y0070104
Y0068961
X00778631Y00679452
Y00668022
Y00656592
Y00645162
Y00633732
Y00622302
Y00610872
X0076962Y0058928
X00762Y005969
X0074676Y0057912
Y0057023
X0073533Y0053975
X0078232Y0056007
X0056515Y0048133
Y0046863
X0052578Y0050546
X00512654Y00505425
X0048768Y0050546
X0065532Y008001
X0078486Y008255
X0077978Y0084709
M30
